%TF.GenerationSoftware,KiCad,Pcbnew,7.0.7*%
%TF.CreationDate,2023-09-24T18:58:44+02:00*%
%TF.ProjectId,Sek_Coil V2,53656b5f-436f-4696-9c20-56322e6b6963,rev?*%
%TF.SameCoordinates,Original*%
%TF.FileFunction,Copper,L2,Bot*%
%TF.FilePolarity,Positive*%
%FSLAX46Y46*%
G04 Gerber Fmt 4.6, Leading zero omitted, Abs format (unit mm)*
G04 Created by KiCad (PCBNEW 7.0.7) date 2023-09-24 18:58:44*
%MOMM*%
%LPD*%
G01*
G04 APERTURE LIST*
%TA.AperFunction,ComponentPad*%
%ADD10C,2.500000*%
%TD*%
%TA.AperFunction,ViaPad*%
%ADD11C,1.500000*%
%TD*%
%TA.AperFunction,Conductor*%
%ADD12C,1.500000*%
%TD*%
%TA.AperFunction,Conductor*%
%ADD13C,0.250000*%
%TD*%
G04 APERTURE END LIST*
D10*
%TO.P, ,1*%
%TO.N,N/C*%
X38000000Y28000000D03*
%TD*%
%TO.P, ,1*%
%TO.N,Net-(L\u002A\u002A1-Pad1)*%
X-38000000Y28000000D03*
%TD*%
%TO.P, ,2*%
%TO.N,Net-(L\u002A\u002A1-Pad1)*%
X-38000000Y-28000000D03*
%TO.P, ,1*%
X38000000Y-28000000D03*
%TD*%
D11*
%TO.N,Net-(L\u002A\u002A1-Pad1)*%
X0Y30700000D03*
%TD*%
D12*
%TO.N,Net-(L\u002A\u002A1-Pad1)*%
X0Y30700000D02*
X1606714Y30657927D01*
X1606714Y30657927D02*
X3209024Y30531822D01*
X3209024Y30531822D02*
X4802538Y30322032D01*
X4802538Y30322032D02*
X6382889Y30029131D01*
X6382889Y30029131D02*
X7945745Y29653923D01*
X7945745Y29653923D02*
X9486822Y29197435D01*
X9486822Y29197435D02*
X11001896Y28660919D01*
X11001896Y28660919D02*
X12486815Y28045846D01*
X12486815Y28045846D02*
X13937508Y27353900D01*
X13937508Y27353900D02*
X15350000Y26586980D01*
X15350000Y26586980D02*
X16720418Y25747186D01*
X16720418Y25747186D02*
X18045007Y24836822D01*
X18045007Y24836822D02*
X19320136Y23858381D01*
X19320136Y23858381D02*
X20542310Y22814546D01*
X20542310Y22814546D02*
X21708178Y21708178D01*
X21708178Y21708178D02*
X22814546Y20542310D01*
X22814546Y20542310D02*
X23858381Y19320136D01*
X23858381Y19320136D02*
X24836822Y18045007D01*
X24836822Y18045007D02*
X25747186Y16720418D01*
X25747186Y16720418D02*
X26586980Y15350000D01*
X26586980Y15350000D02*
X27353900Y13937508D01*
X27353900Y13937508D02*
X28045846Y12486815D01*
X28045846Y12486815D02*
X28660919Y11001896D01*
X28660919Y11001896D02*
X29197435Y9486822D01*
X29197435Y9486822D02*
X29653923Y7945745D01*
X29653923Y7945745D02*
X30029131Y6382889D01*
X30029131Y6382889D02*
X30322032Y4802538D01*
X30322032Y4802538D02*
X30531822Y3209024D01*
X30531822Y3209024D02*
X30657927Y1606714D01*
X30657927Y1606714D02*
X30700000Y0D01*
X30700000Y0D02*
X30657927Y-1606714D01*
X30657927Y-1606714D02*
X30531822Y-3209024D01*
X30531822Y-3209024D02*
X30322032Y-4802538D01*
X30322032Y-4802538D02*
X30029131Y-6382889D01*
X30029131Y-6382889D02*
X29653923Y-7945745D01*
X29653923Y-7945745D02*
X29197435Y-9486822D01*
X29197435Y-9486822D02*
X28660919Y-11001896D01*
X28660919Y-11001896D02*
X28045846Y-12486815D01*
X28045846Y-12486815D02*
X27353900Y-13937508D01*
X27353900Y-13937508D02*
X26586980Y-15350000D01*
X26586980Y-15350000D02*
X25747186Y-16720418D01*
D13*
X25747186Y-16720418D02*
X25840418Y-16720418D01*
X25747186Y-16720418D02*
X25790418Y-16720418D01*
D12*
X25790418Y-16720418D02*
X38000000Y-28000000D01*
%TD*%
M02*
