%TF.GenerationSoftware,KiCad,Pcbnew,7.0.7*%
%TF.CreationDate,2023-09-24T18:58:44+02:00*%
%TF.ProjectId,Sek_Coil V2,53656b5f-436f-4696-9c20-56322e6b6963,rev?*%
%TF.SameCoordinates,Original*%
%TF.FileFunction,Legend,Top*%
%TF.FilePolarity,Positive*%
%FSLAX46Y46*%
G04 Gerber Fmt 4.6, Leading zero omitted, Abs format (unit mm)*
G04 Created by KiCad (PCBNEW 7.0.7) date 2023-09-24 18:58:44*
%MOMM*%
%LPD*%
G01*
G04 APERTURE LIST*
%ADD10C,0.150000*%
%ADD11C,2.500000*%
G04 APERTURE END LIST*
D10*
X30438572Y-28604700D02*
X30652858Y-28676128D01*
X30652858Y-28676128D02*
X31010000Y-28676128D01*
X31010000Y-28676128D02*
X31152858Y-28604700D01*
X31152858Y-28604700D02*
X31224286Y-28533271D01*
X31224286Y-28533271D02*
X31295715Y-28390414D01*
X31295715Y-28390414D02*
X31295715Y-28247557D01*
X31295715Y-28247557D02*
X31224286Y-28104700D01*
X31224286Y-28104700D02*
X31152858Y-28033271D01*
X31152858Y-28033271D02*
X31010000Y-27961842D01*
X31010000Y-27961842D02*
X30724286Y-27890414D01*
X30724286Y-27890414D02*
X30581429Y-27818985D01*
X30581429Y-27818985D02*
X30510000Y-27747557D01*
X30510000Y-27747557D02*
X30438572Y-27604700D01*
X30438572Y-27604700D02*
X30438572Y-27461842D01*
X30438572Y-27461842D02*
X30510000Y-27318985D01*
X30510000Y-27318985D02*
X30581429Y-27247557D01*
X30581429Y-27247557D02*
X30724286Y-27176128D01*
X30724286Y-27176128D02*
X31081429Y-27176128D01*
X31081429Y-27176128D02*
X31295715Y-27247557D01*
X31938571Y-27890414D02*
X32438571Y-27890414D01*
X32652857Y-28676128D02*
X31938571Y-28676128D01*
X31938571Y-28676128D02*
X31938571Y-27176128D01*
X31938571Y-27176128D02*
X32652857Y-27176128D01*
X33295714Y-28676128D02*
X33295714Y-27176128D01*
X34152857Y-28676128D02*
X33510000Y-27818985D01*
X34152857Y-27176128D02*
X33295714Y-28033271D01*
X34724286Y-27318985D02*
X34795714Y-27247557D01*
X34795714Y-27247557D02*
X34938572Y-27176128D01*
X34938572Y-27176128D02*
X35295714Y-27176128D01*
X35295714Y-27176128D02*
X35438572Y-27247557D01*
X35438572Y-27247557D02*
X35510000Y-27318985D01*
X35510000Y-27318985D02*
X35581429Y-27461842D01*
X35581429Y-27461842D02*
X35581429Y-27604700D01*
X35581429Y-27604700D02*
X35510000Y-27818985D01*
X35510000Y-27818985D02*
X34652857Y-28676128D01*
X34652857Y-28676128D02*
X35581429Y-28676128D01*
X-35551427Y-28694700D02*
X-35337142Y-28766128D01*
X-35337142Y-28766128D02*
X-34979999Y-28766128D01*
X-34979999Y-28766128D02*
X-34837142Y-28694700D01*
X-34837142Y-28694700D02*
X-34765713Y-28623271D01*
X-34765713Y-28623271D02*
X-34694284Y-28480414D01*
X-34694284Y-28480414D02*
X-34694284Y-28337557D01*
X-34694284Y-28337557D02*
X-34765713Y-28194700D01*
X-34765713Y-28194700D02*
X-34837142Y-28123271D01*
X-34837142Y-28123271D02*
X-34979999Y-28051842D01*
X-34979999Y-28051842D02*
X-35265713Y-27980414D01*
X-35265713Y-27980414D02*
X-35408570Y-27908985D01*
X-35408570Y-27908985D02*
X-35479999Y-27837557D01*
X-35479999Y-27837557D02*
X-35551427Y-27694700D01*
X-35551427Y-27694700D02*
X-35551427Y-27551842D01*
X-35551427Y-27551842D02*
X-35479999Y-27408985D01*
X-35479999Y-27408985D02*
X-35408570Y-27337557D01*
X-35408570Y-27337557D02*
X-35265713Y-27266128D01*
X-35265713Y-27266128D02*
X-34908570Y-27266128D01*
X-34908570Y-27266128D02*
X-34694284Y-27337557D01*
X-34051428Y-27980414D02*
X-33551428Y-27980414D01*
X-33337142Y-28766128D02*
X-34051428Y-28766128D01*
X-34051428Y-28766128D02*
X-34051428Y-27266128D01*
X-34051428Y-27266128D02*
X-33337142Y-27266128D01*
X-32694285Y-28766128D02*
X-32694285Y-27266128D01*
X-31837142Y-28766128D02*
X-32479999Y-27908985D01*
X-31837142Y-27266128D02*
X-32694285Y-28123271D01*
X-30408570Y-28766128D02*
X-31265713Y-28766128D01*
X-30837142Y-28766128D02*
X-30837142Y-27266128D01*
X-30837142Y-27266128D02*
X-30979999Y-27480414D01*
X-30979999Y-27480414D02*
X-31122856Y-27623271D01*
X-31122856Y-27623271D02*
X-31265713Y-27694700D01*
%LPC*%
D11*
%TO.C, *%
X38000000Y28000000D03*
%TD*%
%TO.C, *%
X-38000000Y28000000D03*
%TD*%
%TO.C, *%
X-38000000Y-28000000D03*
X38000000Y-28000000D03*
%TD*%
%LPD*%
M02*
